<?xml version="1.0" encoding="utf-8"?>
<!-- Generator: Adobe Illustrator 23.0.1, SVG Export Plug-In . SVG Version: 6.00 Build 0)  -->
<svg version="1.1" id="Layer_1" xmlns="http://www.w3.org/2000/svg" xmlns:xlink="http://www.w3.org/1999/xlink" x="0px" y="0px"
	 viewBox="0 0 505.5 291" style="enable-background:new 0 0 505.5 291;" xml:space="preserve">
<style type="text/css">
	.st0{fill:none;}
	.st1{fill:#1E1F1E;}
	.st2{fill:#030303;}
	.st3{fill:#424241;}
	.st4{display:none;fill:#4D4E4E;}
	.st5{opacity:0.4;fill:url(#SVGID_1_);enable-background:new    ;}
	.st6{fill:url(#SVGID_2_);}
	.st7{fill:url(#SVGID_3_);}
	.st8{fill:url(#SVGID_4_);}
</style>
<path class="st0" d="M452,266.2c0,7.2-5.9,13.1-13.1,13.1H67.4c-7.2,0-13.1-5.9-13.1-13.1V18.9c0-7.2,5.9-13.1,13.1-13.1h371.4
	c7.2,0,13.1,5.9,13.1,13.1v247.3H452z"/>
<path class="st1" d="M438.8,5.8H67.4c-7.2,0-13.1,5.9-13.1,13.1v247.2c0,7.2,5.9,13.1,13.1,13.1h371.4c7.2,0,13.1-5.9,13.1-13.1
	V18.9C452,11.7,446,5.8,438.8,5.8z"/>
<path class="st2" d="M450.8,254.8v5c0,3.1-2.5,5.6-5.6,5.6H61c-3.1,0-5.6-2.5-5.6-5.6v-5V18.9C55.4,12.3,60.8,7,67.3,7h371.6
	c6.6,0,11.9,5.3,11.9,11.9L450.8,254.8z"/>
<path class="st3" d="M445.2,265.4H61c-3.1,0-5.7-2.5-5.7-5.7V18.9c0-6.6,5.4-12,12-12h371.6c6.6,0,12,5.4,12,12v240.9
	C450.9,262.9,448.3,265.4,445.2,265.4z M67.3,7.1c-6.5,0-11.8,5.3-11.8,11.8v240.9c0,3,2.5,5.5,5.5,5.5h384.2c3,0,5.5-2.5,5.5-5.5
	V18.9c0-6.5-5.3-11.8-11.8-11.8L67.3,7.1z"/>
<path class="st0" d="M7,273c0-0.3,0.3-0.6,0.6-0.6h491.1c0.3,0,0.6,0.3,0.6,0.6v7.1c0,0.6-0.5,1.1-1.1,1.1H8.1
	c-0.6,0-1.1-0.5-1.1-1.1L7,273z"/>
<path class="st0" d="M7.3,280.9c0,0,5.6,6,22.6,6h446.3c17,0,22.6-6,22.6-6"/>
<path class="st4" d="M66.7,20.4h372.8v232.4H66.7L66.7,20.4z"/>
<linearGradient id="SVGID_1_" gradientUnits="userSpaceOnUse" x1="321.0845" y1="43.7651" x2="426.8201" y2="472.4231" gradientTransform="matrix(1 0 0 -1 0 292)">
	<stop  offset="0" style="stop-color:#FFFFFF;stop-opacity:0"/>
	<stop  offset="1" style="stop-color:#FFFFFF"/>
</linearGradient>
<path class="st5" d="M439,6.9H247.8l125,258.4h72.5c3.1,0,5.6-2.5,5.6-5.6v-5V18.8C450.9,12.2,445.5,6.9,439,6.9"/>
<linearGradient id="SVGID_2_" gradientUnits="userSpaceOnUse" x1="253" y1="20.5596" x2="253" y2="26.1962" gradientTransform="matrix(1 0 0 -1 0 292)">
	<stop  offset="9.397129e-03" style="stop-color:#272727"/>
	<stop  offset="0.5403" style="stop-color:#101010"/>
	<stop  offset="0.9778" style="stop-color:#020202"/>
</linearGradient>
<path class="st6" d="M96.8,266.4h312.4v5.5H96.8L96.8,266.4z"/>
<radialGradient id="SVGID_3_" cx="32.7194" cy="-205.833" r="242.9435" fx="39.7662" fy="-201.5051" gradientTransform="matrix(0.2534 -0.9674 -0.9845 -0.2579 42.4501 252.9252)" gradientUnits="userSpaceOnUse">
	<stop  offset="9.397129e-03" style="stop-color:#FFFFFF"/>
	<stop  offset="0.2278" style="stop-color:#FCFCFC"/>
	<stop  offset="0.4153" style="stop-color:#F1F1F1"/>
	<stop  offset="0.5909" style="stop-color:#E0E0DF"/>
	<stop  offset="0.7396" style="stop-color:#CBCBCA"/>
	<stop  offset="0.75" style="stop-color:#CFCFCE"/>
	<stop  offset="0.8298" style="stop-color:#E9E9E9"/>
	<stop  offset="0.9008" style="stop-color:#F9F9F9"/>
	<stop  offset="0.9551" style="stop-color:#FFFFFF"/>
	<stop  offset="1" style="stop-color:#8C8C8C"/>
</radialGradient>
<path class="st7" d="M7.3,272.8c0-0.3,0.3-0.6,0.6-0.6H499c0.3,0,0.6,0.3,0.6,0.6v7.1c0,0.6-0.5,1.1-1.1,1.1H8.4
	c-0.6,0-1.1-0.5-1.1-1.1L7.3,272.8z"/>
<path class="st0" d="M7.3,280.9c0,0,5.6,6,22.6,6h446.3c17,0,22.6-6,22.6-6"/>
<linearGradient id="SVGID_4_" gradientUnits="userSpaceOnUse" x1="253.35" y1="5.4347" x2="253.35" y2="10.6774" gradientTransform="matrix(1 0 0 -1 0 292)">
	<stop  offset="9.397129e-03" style="stop-color:#5A5B5B"/>
	<stop  offset="0.4235" style="stop-color:#8C8C8C"/>
	<stop  offset="0.7864" style="stop-color:#B1B0B0"/>
	<stop  offset="0.9778" style="stop-color:#BFBEBE"/>
</linearGradient>
<path class="st8" d="M7.9,280.9c0,0,5,6,22,6h446.3c17,0,22.6-6,22.6-6H7.9z"/>
</svg>
