<?xml version="1.0" encoding="utf-8"?>
<!-- Generator: Adobe Illustrator 23.0.1, SVG Export Plug-In . SVG Version: 6.00 Build 0)  -->
<svg version="1.1" id="Layer_1" xmlns="http://www.w3.org/2000/svg" xmlns:xlink="http://www.w3.org/1999/xlink" x="0px" y="0px"
	 viewBox="0 0 1024 350" style="enable-background:new 0 0 1024 350;" xml:space="preserve">
<style type="text/css">
	.st0{fill:#FFFFFF;}
	.st1{font-family:'Comfortaa-Bold';}
	.st2{font-size:98.2068px;}
	.st3{letter-spacing:17;}
	.st4{letter-spacing:11;}
	.st5{letter-spacing:10;}
	.st6{letter-spacing:9;}
	.st7{letter-spacing:19;}
	.st8{letter-spacing:5;}
	.st9{letter-spacing:3;}
	.st10{fill:none;stroke:#FFFFFF;stroke-miterlimit:10;}
	.st11{fill:none;stroke:#010101;stroke-width:3;stroke-miterlimit:10;}
	.st12{fill:none;stroke:#2AAAE2;stroke-miterlimit:10;}
	.st13{fill:none;stroke:#00A99D;stroke-miterlimit:10;}
	.st14{fill:none;stroke:#3DB54A;stroke-miterlimit:10;}
	.st15{fill:none;stroke:#8DC641;stroke-miterlimit:10;}
	.st16{fill:none;stroke:#D9E026;stroke-miterlimit:10;}
	.st17{fill:none;stroke:#FAED24;stroke-miterlimit:10;}
	.st18{fill:none;stroke:#FBB03B;stroke-miterlimit:10;}
	.st19{fill:none;stroke:#F79421;stroke-miterlimit:10;}
</style>
<text transform="matrix(1 0 0 1 12.2881 214.8392)" class="st0 st1 st2 st3">K</text>
<text transform="matrix(1 0 0 1 95.4648 214.8392)" class="st0 st1 st2 st4">A</text>
<text transform="matrix(1 0 0 1 176.2949 214.8392)" class="st0 st1 st2 st5">L</text>
<text transform="matrix(1 0 0 1 250.1602 214.8392)" class="st0 st1 st2 st6">E</text>
<text transform="matrix(1 0 0 1 328.7188 214.8392)" class="st0 st1 st2 st7">I</text>
<text transform="matrix(1 0 0 1 509.71 214.8392)" class="st0 st1 st2 st6">O</text>
<text transform="matrix(1 0 0 1 609.9854 214.8392)" class="st0 st1 st2 st8">S</text>
<text transform="matrix(1 0 0 1 683.459 214.8392)" class="st0 st1 st2 st6">C</text>
<text transform="matrix(1 0 0 1 769.5771 214.8392)" class="st0 st1 st2 st8">O</text>
<text transform="matrix(1 0 0 1 865.9219 214.8392)" class="st0 st1 st2 st9">P</text>
<text transform="matrix(1 0 0 1 931.0332 214.8392)" class="st0 st1 st2 st6">E</text>
<g>
	<path class="st10" d="M401.2,148.1l-37.9-81.6l151.2,107.7h-85.7L401.2,148.1z"/>
	<path class="st11" d="M372.3,86.3v175.9l123.4-87.9L372.3,86.3z M396.5,138.2l50.6,36l-50.6,36.1V138.2z"/>
	<path class="st12" d="M372.3,86.3v175.9l123.4-87.9L372.3,86.3z"/>
	<path class="st13" d="M375.8,93.7l113,80.5l-113,80.5L375.8,93.7z"/>
	<path class="st14" d="M379.2,101.1l102.6,73.1l-102.6,73.1L379.2,101.1z"/>
	<path class="st15" d="M382.7,108.5l92.2,65.7l-92.2,65.7L382.7,108.5z"/>
	<path class="st16" d="M386.2,115.9l81.8,58.3l-81.8,58.3V115.9z"/>
	<path class="st17" d="M389.7,123.3l71.4,50.9l-71.4,50.9V123.3z"/>
	<path class="st18" d="M393.1,130.8l61,43.5l-61,43.5V130.8z"/>
	<path class="st19" d="M396.6,138.2l50.6,36l-50.6,36.1V138.2z"/>
	<path class="st10" d="M401.2,200.3l-37.9,81.6l151.2-107.7h-85.7L401.2,200.3z"/>
	<path class="st10" d="M402.6,151.1l-40.4-84.4l-0.3,214.6l40.8-84.6L402.6,151.1z"/>
</g>
</svg>
