<?xml version="1.0" encoding="utf-8"?>
<!-- Generator: Adobe Illustrator 23.0.1, SVG Export Plug-In . SVG Version: 6.00 Build 0)  -->
<svg version="1.1" id="Layer_1" xmlns="http://www.w3.org/2000/svg" xmlns:xlink="http://www.w3.org/1999/xlink" x="0px" y="0px"
	 viewBox="0 0 1024 290.1" style="enable-background:new 0 0 1024 290.1;" xml:space="preserve">
<style type="text/css">
	.st0{fill:#FFFFFF;}
	.st1{font-family:'Comfortaa-Bold';}
	.st2{font-size:98.2068px;}
	.st3{letter-spacing:16;}
	.st4{letter-spacing:10;}
	.st5{letter-spacing:9;}
	.st6{letter-spacing:8;}
	.st7{letter-spacing:18;}
	.st8{letter-spacing:4;}
	.st9{letter-spacing:2;}
	.st10{fill:none;stroke:#FFFFFF;stroke-miterlimit:10;}
	.st11{fill:none;stroke:#010101;stroke-width:3;stroke-miterlimit:10;}
	.st12{fill:none;stroke:#2AAAE2;stroke-miterlimit:10;}
	.st13{fill:none;stroke:#00A99D;stroke-miterlimit:10;}
	.st14{fill:none;stroke:#3DB54A;stroke-miterlimit:10;}
	.st15{fill:none;stroke:#8DC641;stroke-miterlimit:10;}
	.st16{fill:none;stroke:#D9E026;stroke-miterlimit:10;}
	.st17{fill:none;stroke:#FAED24;stroke-miterlimit:10;}
	.st18{fill:none;stroke:#FBB03B;stroke-miterlimit:10;}
	.st19{fill:none;stroke:#F79421;stroke-miterlimit:10;}
</style>
<text transform="matrix(1 0 0 1 12.2881 154.9375)" class="st0 st1 st2 st3">K</text>
<text transform="matrix(1 0 0 1 95.4648 154.9375)" class="st0 st1 st2 st4">A</text>
<text transform="matrix(1 0 0 1 176.2949 154.9375)" class="st0 st1 st2 st5">L</text>
<text transform="matrix(1 0 0 1 250.1602 154.9375)" class="st0 st1 st2 st6">E</text>
<text transform="matrix(1 0 0 1 328.7188 154.9375)" class="st0 st1 st2 st7">I</text>
<text transform="matrix(1 0 0 1 509.71 154.9375)" class="st0 st1 st2 st6">O</text>
<text transform="matrix(1 0 0 1 609.9854 154.9375)" class="st0 st1 st2 st8">S</text>
<text transform="matrix(1 0 0 1 683.459 154.9375)" class="st0 st1 st2 st6">C</text>
<text transform="matrix(1 0 0 1 769.5771 154.9375)" class="st0 st1 st2 st8">O</text>
<text transform="matrix(1 0 0 1 865.9219 154.9375)" class="st0 st1 st2 st9">P</text>
<text transform="matrix(1 0 0 1 931.0332 154.9375)" class="st0 st1 st2 st6">E</text>
<g>
	<path class="st10" d="M401.2,88.2L363.3,6.6l151.2,107.7h-85.7L401.2,88.2z"/>
	<path class="st11" d="M372.3,26.4v175.9l123.4-87.9L372.3,26.4z M396.5,78.3l50.6,36l-50.6,36.1V78.3z"/>
	<path class="st12" d="M372.3,26.4v175.9l123.4-87.9L372.3,26.4z"/>
	<path class="st13" d="M375.8,33.8l113,80.5l-113,80.5V33.8z"/>
	<path class="st14" d="M379.2,41.2l102.6,73.1l-102.6,73.1V41.2z"/>
	<path class="st15" d="M382.7,48.6l92.2,65.7L382.7,180V48.6z"/>
	<path class="st16" d="M386.2,56l81.8,58.3l-81.8,58.3V56z"/>
	<path class="st17" d="M389.7,63.4l71.4,50.9l-71.4,50.9V63.4z"/>
	<path class="st18" d="M393.1,70.9l61,43.5l-61,43.5V70.9z"/>
	<path class="st19" d="M396.6,78.3l50.6,36l-50.6,36.1V78.3z"/>
	<path class="st10" d="M401.2,140.4L363.3,222l151.2-107.7h-85.7L401.2,140.4z"/>
	<path class="st10" d="M402.6,91.2L362.2,6.8l-0.3,214.6l40.8-84.6L402.6,91.2z"/>
</g>
</svg>
