<svg viewBox="0 0 549.28 132.89" xmlns="http://www.w3.org/2000/svg"><text fill="#fff" font-family="Comfortaa-Bold, Comfortaa" font-size="52.73" font-weight="700" letter-spacing=".18em" transform="translate(5.01 88.29)">K<tspan letter-spacing=".12em" x="44.66" y="0">A</tspan><tspan letter-spacing=".11em" x="88.06" y="0">L</tspan><tspan letter-spacing=".1em" x="127.72" y="0">E</tspan><tspan letter-spacing=".2em" x="169.9" y="0">I</tspan><tspan letter-spacing=".1em" x="196.48" xml:space="preserve" y="0"></tspan><tspan letter-spacing=".36em" x="237.92" y="0"></tspan><tspan letter-spacing=".1em" x="272.36" y="0">O</tspan><tspan letter-spacing=".06em" x="326.2" y="0">S</tspan><tspan letter-spacing=".1em" x="365.64" y="0">C</tspan><tspan letter-spacing=".06em" x="411.89" y="0">O</tspan><tspan letter-spacing=".04em" x="463.62" y="0">P</tspan><tspan letter-spacing=".1em" x="498.58" y="0">E</tspan></text><g fill="none" stroke-miterlimit="10" stroke-width="3"><path d="m198.33 19.25v94.44l66.24-47.22z" stroke="#2aaae2"/><path d="m202.05 27.21 55.08 39.26-55.08 39.26z" stroke="#3db54a"/><path d="m205.77 35.17 43.91 31.3-43.91 31.3z" stroke="#d9e026"/><path d="m209.49 43.14 32.74 23.33-32.74 23.34z" stroke="#fbb03b"/></g><path d="m192 6.89 83.64 59.62-83.64 59.7zm22.7 74.16-18.7 40.21 75.58-53.8h-42.52zm-20.8-65.74-.16 102 .95.22 19-39.28-.08-24-18.76-39.15zm21.75 62.05 11.55-10.9-11.62-11zm-1-25.49 14.41 13.59h42.47l-75.53-53.8z" fill="#b4b4b4"/></svg>