<?xml version="1.0" encoding="utf-8"?>
<!-- Generator: Adobe Illustrator 23.0.1, SVG Export Plug-In . SVG Version: 6.00 Build 0)  -->
<svg version="1.1" id="Layer_1" xmlns="http://www.w3.org/2000/svg" xmlns:xlink="http://www.w3.org/1999/xlink" x="0px" y="0px"
	 viewBox="0 0 116.3 214.8" style="enable-background:new 0 0 116.3 214.8;" xml:space="preserve">
<style type="text/css">
	.st0{fill:#9C9DA2;}
	.st1{fill:#262525;}
	.st2{fill:#212120;}
	.st3{fill:#3A3A3A;}
	.st4{fill:#0C0D0D;}
	.st5{opacity:0.4;fill:#5E5E5E;enable-background:new    ;}
	.st6{opacity:0.44;fill:#5E5E5E;enable-background:new    ;}
	.st7{opacity:0.4;fill:#626262;enable-background:new    ;}
	.st8{opacity:0.7;fill:url(#SVGID_1_);enable-background:new    ;}
	.st9{opacity:0.5;}
	.st10{opacity:0.7;fill:url(#SVGID_2_);enable-background:new    ;}
	.st11{opacity:0.8;fill:url(#SVGID_3_);enable-background:new    ;}
	.st12{fill:#5A5A5A;}
	.st13{fill:#2B2B2B;}
	.st14{display:none;fill:#2D2D2D;}
	.st15{display:none;fill:#8D8A8A;}
	.st16{fill:url(#SVGID_4_);}
	.st17{fill:url(#SVGID_5_);}
	.st18{fill:url(#SVGID_6_);}
	.st19{fill:url(#SVGID_7_);}
	.st20{fill:url(#SVGID_8_);}
	.st21{opacity:0.1;fill:url(#SVGID_9_);enable-background:new    ;}
</style>
<path class="st0" d="M96.8,212H22.1c-10.8,0-15.8-7.5-15.8-14.1V17.2C6.3,12.9,8.6,1.9,20,1.9c19.1,0,75.6,0,75.6,0
	c12.9,0,14.9,12.6,14.9,15.3c0,45.6,0,136,0,181.6C110.5,204.1,105.6,212,96.8,212z"/>
<g>
	
		<image style="overflow:visible;opacity:0.75;enable-background:new    ;" width="257" height="516" xlink:href="B8AEAD3A867D6028.png"  transform="matrix(0.4075 0 0 0.4075 6.0527 1.9986)">
	</image>
	<g>
		<path class="st1" d="M96.6,211.1H22.5c-10.7,0-14.8-7.4-14.8-14V17.6c0-4.3,1.5-14.4,12.8-14.4c18.9,0,74.9,0,74.9,0
			c12.8,0,13.6,11.3,13.6,14c0,0,0,135.5,0,180.8C109,203.2,105.2,211.1,96.6,211.1z"/>
	</g>
</g>
<path class="st2" d="M96.6,209.8H22c-10.8,0-14.1-7.5-14.1-13.1V18.1c0-4.3,0.6-14.3,12-14.3c18.9,0,75.5,0,75.5,0
	c12.9,0,13.7,11.2,13.7,13.9v179.9C109.1,201.9,105.4,209.8,96.6,209.8z"/>
<path d="M96.4,209.4H22.2c-10.7,0-14-7.5-14-13V18.2C8.2,14,8.9,4,20.2,4c18.8,0,75,0,75,0c12.8,0,13.6,11.2,13.6,13.9v179.3
	C108.8,201.4,105.1,209.4,96.4,209.4z"/>
<path class="st3" d="M9,98V18.4C9,15.2,9.9,5.2,20.5,4.9h74.4c12.7,0,13.5,10.4,13.5,13.1c0,0,0,134.6,0,179.6c0,3.5-3.7,11-12.3,11
	H22.5c-10.6,0-13.5-7.3-13.5-11.8V98"/>
<path class="st4" d="M96.1,208.6H21.5C13,208,10.3,200.9,10,197.2V18.4c0-2.7,0-13.5,10.2-13.5h74.5C106.6,4.9,107,15.3,107,18
	v179.6C107.1,201.1,104,208.6,96.1,208.6z"/>
<path class="st5" d="M109.2,194.7c0,0,0.9,0.1,1.3-0.3c0.1,1.3,0,2.7,0,2.7s-0.4,0.5-1.3,0.3C109.2,196.1,109.2,194.7,109.2,194.7z"
	/>
<path class="st6" d="M7.8,15.7c0,0-0.7-0.4-1.4,0.3c0,3,0,3,0,3s0.4-0.5,1.3-0.3C7.7,17,7.7,16.1,7.8,15.7z"/>
<path class="st7" d="M6.3,194.4v2.5c0,0,0.8,0.6,1.3,0.3c0-0.9,0-2.6,0-2.6S7,194.8,6.3,194.4z"/>
<linearGradient id="SVGID_1_" gradientUnits="userSpaceOnUse" x1="58.6" y1="-4.3976" x2="58.6" y2="9.6028" gradientTransform="matrix(1 0 0 -1 0 216)">
	<stop  offset="0" style="stop-color:#000000"/>
	<stop  offset="1" style="stop-color:#212121"/>
</linearGradient>
<path class="st8" d="M11,208.3h2c0,0,3.5,2.7,8.8,2.7c2.2,0,75.5,0,75.5,0s0.2,0,0.3,0c2.3-0.1,3.8-0.5,6.8-2.7c1.5,0,1.8,0,1.8,0
	s-3.6,3.7-8.9,3.7c-6.3,0-19.6,0-19.6,0s-40.7,0.1-54.4,0.1C20,212.1,15.1,211.9,11,208.3z"/>
<g class="st9">
	
		<linearGradient id="SVGID_2_" gradientUnits="userSpaceOnUse" x1="44.9202" y1="203.9406" x2="43.1517" y2="200.4034" gradientTransform="matrix(1 0 0 -1 0 216)">
		<stop  offset="0.4485" style="stop-color:#221F1F"/>
		<stop  offset="0.5291" style="stop-color:#272424"/>
		<stop  offset="0.6272" style="stop-color:#363333"/>
		<stop  offset="0.7344" style="stop-color:#4E4C4C"/>
		<stop  offset="0.8481" style="stop-color:#6F6E6E"/>
		<stop  offset="0.9657" style="stop-color:#9A9A9A"/>
		<stop  offset="1" style="stop-color:#A8A8A8"/>
	</linearGradient>
	<ellipse class="st10" cx="43.8" cy="14.3" rx="1.8" ry="1.7"/>
	
		<radialGradient id="SVGID_3_" cx="29.9331" cy="201.6543" r="0.8321" gradientTransform="matrix(1.0255 0 0 -1 13.0783 216)" gradientUnits="userSpaceOnUse">
		<stop  offset="0.492" style="stop-color:#303030"/>
		<stop  offset="0.4947" style="stop-color:#343434"/>
		<stop  offset="0.5254" style="stop-color:#585859"/>
		<stop  offset="0.5588" style="stop-color:#777778"/>
		<stop  offset="0.5948" style="stop-color:#909192"/>
		<stop  offset="0.6344" style="stop-color:#A4A5A6"/>
		<stop  offset="0.6796" style="stop-color:#B2B2B4"/>
		<stop  offset="0.7349" style="stop-color:#BABBBD"/>
		<stop  offset="0.8304" style="stop-color:#BCBDBF"/>
		<stop  offset="0.8543" style="stop-color:#B3B4B6"/>
		<stop  offset="0.893" style="stop-color:#9C9D9F"/>
		<stop  offset="0.9414" style="stop-color:#777778"/>
		<stop  offset="0.9974" style="stop-color:#434343"/>
		<stop  offset="1" style="stop-color:#404040"/>
	</radialGradient>
	<ellipse class="st11" cx="43.8" cy="14.3" rx="0.9" ry="0.8"/>
	<path class="st12" d="M65.5,15.3H52c-0.3,0-0.6-0.3-0.6-0.6v-0.2c0-0.3,0.3-0.6,0.6-0.6h13.4c0.3,0,0.6,0.3,0.6,0.6v0.2
		C66.1,15.1,65.8,15.3,65.5,15.3z"/>
	<path class="st13" d="M65.3,15H52c-0.2,0-0.4-0.2-0.4-0.4v-0.1c0-0.2,0.2-0.4,0.4-0.4h13.3c0.2,0,0.4,0.2,0.4,0.4v0.1
		C65.8,14.8,65.6,15,65.3,15z"/>
</g>
<path class="st14" d="M102.4,186.7H14.8c-1.6,0-3-1.4-3-3V29.1c0-1.6,1.4-3,3-3h87.6c1.7,0,3,1.4,3,3v154.7
	C105.4,185.4,104.1,186.7,102.4,186.7z"/>
<rect x="12.8" y="27.1" class="st15" width="91.8" height="158.8"/>
<g>
	
		<radialGradient id="SVGID_4_" cx="6.172" cy="166.7862" r="6.5826" gradientTransform="matrix(1 0 0 -1 0 216)" gradientUnits="userSpaceOnUse">
		<stop  offset="0" style="stop-color:#D6D6D6"/>
		<stop  offset="6.532145e-02" style="stop-color:#CCCCCC"/>
		<stop  offset="0.2138" style="stop-color:#B9B9B9"/>
		<stop  offset="0.3185" style="stop-color:#B3B3B3"/>
		<stop  offset="0.7124" style="stop-color:#ABABAB"/>
		<stop  offset="0.8949" style="stop-color:#2B2B2B"/>
		<stop  offset="0.936" style="stop-color:#262626"/>
		<stop  offset="0.9862" style="stop-color:#171717"/>
		<stop  offset="1" style="stop-color:#121212"/>
	</radialGradient>
	<path class="st16" d="M6.5,42.3V56c0,0-0.6,0-0.6-0.6s0-12.7,0-12.7S5.9,42.2,6.5,42.3z"/>
	
		<image style="overflow:visible;opacity:0.85;enable-background:new    ;" width="2" height="15" xlink:href="B8AEAD3A867D6029.png"  transform="matrix(1 0 0 1 5 41.8)">
	</image>
</g>
<g>
	
		<radialGradient id="SVGID_5_" cx="6.172" cy="150.0566" r="6.5788" gradientTransform="matrix(1 0 0 -1 0 216)" gradientUnits="userSpaceOnUse">
		<stop  offset="0" style="stop-color:#D6D6D6"/>
		<stop  offset="6.532145e-02" style="stop-color:#CCCCCC"/>
		<stop  offset="0.2138" style="stop-color:#B9B9B9"/>
		<stop  offset="0.3185" style="stop-color:#B3B3B3"/>
		<stop  offset="0.7124" style="stop-color:#ABABAB"/>
		<stop  offset="0.8949" style="stop-color:#2B2B2B"/>
		<stop  offset="0.936" style="stop-color:#262626"/>
		<stop  offset="0.9862" style="stop-color:#171717"/>
		<stop  offset="1" style="stop-color:#121212"/>
	</radialGradient>
	<path class="st17" d="M6.5,59.1v13.7c0,0-0.6,0-0.6-0.6s0-12.7,0-12.7S5.9,59,6.5,59.1z"/>
	
		<image style="overflow:visible;opacity:0.85;enable-background:new    ;" width="2" height="14" xlink:href="B8AEAD3A867D602F.png"  transform="matrix(1 0 0 1 5 58.8)">
	</image>
</g>
<g>
	
		<radialGradient id="SVGID_6_" cx="6.172" cy="4.1622" r="6.5826" gradientTransform="matrix(1 0 0 -0.5209 0 32.4681)" gradientUnits="userSpaceOnUse">
		<stop  offset="0" style="stop-color:#D6D6D6"/>
		<stop  offset="6.532145e-02" style="stop-color:#CCCCCC"/>
		<stop  offset="0.2138" style="stop-color:#B9B9B9"/>
		<stop  offset="0.3185" style="stop-color:#B3B3B3"/>
		<stop  offset="0.7124" style="stop-color:#ABABAB"/>
		<stop  offset="0.8949" style="stop-color:#2B2B2B"/>
		<stop  offset="0.936" style="stop-color:#262626"/>
		<stop  offset="0.9862" style="stop-color:#171717"/>
		<stop  offset="1" style="stop-color:#121212"/>
	</radialGradient>
	<path class="st18" d="M6.5,26.7v7.1c0,0-0.6,0-0.6-0.3s0-6.6,0-6.6S5.9,26.7,6.5,26.7z"/>
	
		<image style="overflow:visible;opacity:0.85;enable-background:new    ;" width="2" height="9" xlink:href="B8AEAD3A867D602A.png"  transform="matrix(1 0 0 1 5 25.8)">
	</image>
</g>
<path class="st6" d="M109.1,15.6l0.1,3.2c0,0,1-0.2,1.3,0.2c0-1.5,0-3,0-3S110.1,15.4,109.1,15.6z"/>
<g>
	
		<radialGradient id="SVGID_7_" cx="-576.9747" cy="167.216" r="6.5826" gradientTransform="matrix(-1 0 0 -1 -466.426 216)" gradientUnits="userSpaceOnUse">
		<stop  offset="0" style="stop-color:#D6D6D6"/>
		<stop  offset="6.532145e-02" style="stop-color:#CCCCCC"/>
		<stop  offset="0.2138" style="stop-color:#B9B9B9"/>
		<stop  offset="0.3185" style="stop-color:#B3B3B3"/>
		<stop  offset="0.7124" style="stop-color:#ABABAB"/>
		<stop  offset="0.8949" style="stop-color:#2B2B2B"/>
		<stop  offset="0.936" style="stop-color:#262626"/>
		<stop  offset="0.9862" style="stop-color:#171717"/>
		<stop  offset="1" style="stop-color:#121212"/>
	</radialGradient>
	<path class="st19" d="M110.2,41.9v13.7c0,0,0.6,0,0.6-0.6s0-12.7,0-12.7S110.9,41.8,110.2,41.9z"/>
	
		<image style="overflow:visible;opacity:0.85;enable-background:new    ;" width="1" height="14" xlink:href="B8AEAD3A867D602B.png"  transform="matrix(1 0 0 1 110 41.8)">
	</image>
</g>
<linearGradient id="SVGID_8_" gradientUnits="userSpaceOnUse" x1="59.9447" y1="10.8041" x2="56.5776" y2="24.1025" gradientTransform="matrix(1 0 0 -1 0 216)">
	<stop  offset="0" style="stop-color:#000000"/>
	<stop  offset="0.5453" style="stop-color:#FFFFFF"/>
	<stop  offset="0.5606" style="stop-color:#F0F0F0"/>
	<stop  offset="0.632" style="stop-color:#B2B2B2"/>
	<stop  offset="0.7027" style="stop-color:#7C7C7C"/>
	<stop  offset="0.7709" style="stop-color:#4F4F4F"/>
	<stop  offset="0.8361" style="stop-color:#2D2D2D"/>
	<stop  offset="0.8975" style="stop-color:#141414"/>
	<stop  offset="0.9538" style="stop-color:#050505"/>
	<stop  offset="1" style="stop-color:#000000"/>
</linearGradient>
<path class="st20" d="M58.3,191.7c-4,0-7.2,3.1-7.2,7s3.2,7,7.2,7s7.2-3.1,7.2-7S62.3,191.7,58.3,191.7z M58.3,204.8
	c-3.5,0-6.2-2.7-6.2-6.1c0-3.4,2.8-6.1,6.2-6.1c3.5,0,6.2,2.7,6.2,6.1C64.6,202.1,61.8,204.8,58.3,204.8z"/>
<linearGradient id="SVGID_9_" gradientUnits="userSpaceOnUse" x1="23.2" y1="139.05" x2="106.6" y2="139.05" gradientTransform="matrix(1 0 0 -1 0 216)">
	<stop  offset="2.566135e-02" style="stop-color:#4D4D4D"/>
	<stop  offset="2.611278e-02" style="stop-color:#4D4D4D"/>
	<stop  offset="6.768901e-02" style="stop-color:#5F5F5F"/>
	<stop  offset="9.699876e-02" style="stop-color:#666666"/>
	<stop  offset="0.1199" style="stop-color:#7E7E7E"/>
	<stop  offset="0.1491" style="stop-color:#959595"/>
	<stop  offset="0.1805" style="stop-color:#A6A6A6"/>
	<stop  offset="0.2153" style="stop-color:#AFAFAF"/>
	<stop  offset="0.2599" style="stop-color:#B3B3B3"/>
	<stop  offset="0.7385" style="stop-color:#ABABAB"/>
	<stop  offset="0.8949" style="stop-color:#666666"/>
	<stop  offset="0.9398" style="stop-color:#585858"/>
	<stop  offset="0.9974" style="stop-color:#404040"/>
</linearGradient>
<path class="st21" d="M23.2,5.5h73.4c0,0,9.2,0.5,10,10.9c0,10.1,0,132,0,132L23.2,5.5z"/>
</svg>
