<?xml version="1.0" encoding="utf-8"?>
<!-- Generator: Adobe Illustrator 23.0.1, SVG Export Plug-In . SVG Version: 6.00 Build 0)  -->
<svg version="1.1" id="Layer_1" xmlns="http://www.w3.org/2000/svg" xmlns:xlink="http://www.w3.org/1999/xlink" x="0px" y="0px"
	 viewBox="0 0 107.5 132.8" style="enable-background:new 0 0 107.5 132.8;" xml:space="preserve">
<style type="text/css">
	.st0{fill:url(#SVGID_1_);}
	.st1{fill:url(#SVGID_2_);}
	.st2{fill:url(#SVGID_3_);}
	.st3{fill:#CBCBCA;}
	.st4{fill:#232323;}
	.st5{fill:#282827;}
	.st6{fill:url(#SVGID_4_);}
	.st7{display:none;fill:#E8E7E7;}
	.st8{opacity:0.4;fill:url(#SVGID_5_);enable-background:new    ;}
	.st9{opacity:0.3;fill:url(#SVGID_6_);enable-background:new    ;}
</style>
<linearGradient id="SVGID_1_" gradientUnits="userSpaceOnUse" x1="85.6079" y1="712.0363" x2="91.9606" y2="712.0363" gradientTransform="matrix(1 0 0 1 0 -707.89)">
	<stop  offset="0" style="stop-color:#8A8A8A"/>
	<stop  offset="1" style="stop-color:#4F4F4F"/>
</linearGradient>
<path class="st0" d="M92,4.5c0,0.1-0.2,0.1-0.1,0l-6.1,0c-0.1,0-0.1-0.1-0.1-0.1V3.8c0-0.1,0.1-0.1,0.1-0.1h6.1
	C92,3.7,92,3.8,92,3.8L92,4.5z"/>
<linearGradient id="SVGID_2_" gradientUnits="userSpaceOnUse" x1="1675.9897" y1="-638.8102" x2="1678.6267" y2="-638.8102" gradientTransform="matrix(0 1 -1 0 -536.1102 -1660.0001)">
	<stop  offset="0" style="stop-color:#8A8A8A"/>
	<stop  offset="1" style="stop-color:#000000"/>
</linearGradient>
<path class="st1" d="M102.4,18.6c-0.1,0-0.1,0-0.1-0.1V16l0.1-0.1h0.6c0.1,0,0.1,0,0.1,0.1v2.5l-0.1,0.1H102.4z"/>
<linearGradient id="SVGID_3_" gradientUnits="userSpaceOnUse" x1="102.7" y1="740.8174" x2="102.7" y2="769.6743" gradientTransform="matrix(1 0 0 1 0 -707.89)">
	<stop  offset="0" style="stop-color:#8A8A8A"/>
	<stop  offset="1" style="stop-color:#000000"/>
</linearGradient>
<path class="st2" d="M102.7,62.4L102.7,62.4c-0.2,0-0.4-0.2-0.4-0.4V28c0-0.2,0.2-0.4,0.4-0.4l0,0c0.2,0,0.4,0.2,0.4,0.4v34.1
	C103.1,62.3,102.9,62.4,102.7,62.4z"/>
<path class="st3" d="M98.1,4.5H9.2c-2.4,0-4.3,2-4.3,4.3v116.8c0,2.4,2,4.3,4.3,4.3h88.9c2.4,0,4.3-2,4.3-4.3V8.8
	C102.4,6.4,100.4,4.5,98.1,4.5L98.1,4.5z"/>
<path d="M98.1,4.9c2.2,0,4,1.8,4,4v116.7c0,2.2-1.8,4-4,4h-89c-2.2,0-4-1.8-4-4V8.9c0-2.2,1.8-4,4-4L98.1,4.9"/>
<path class="st4" d="M9.1,5.3c-1.9,0-3.5,1.6-3.5,3.5v116.8c0,1.9,1.6,3.5,3.5,3.5H98c1.9,0,3.5-1.6,3.5-3.5V8.8
	c0-1.9-1.6-3.5-3.5-3.5H9.1z"/>
<g>
	<path d="M9.1,129.1c-1.9,0-3.5-1.6-3.5-3.5V8.8c0-1.9,1.6-3.5,3.5-3.5H98c1.9,0,3.5,1.6,3.5,3.5v116.8c0,1.9-1.6,3.5-3.5,3.5H9.1z"
		/>
	<path class="st5" d="M98.1,5.4c1.9,0,3.4,1.5,3.4,3.4v116.8c0,1.9-1.5,3.4-3.4,3.4h-89c-1.9,0-3.4-1.5-3.4-3.4V8.8
		c0-1.9,1.5-3.4,3.4-3.4H98.1 M98.1,5.3h-89c-1.9,0-3.5,1.6-3.5,3.5v116.8c0,1.9,1.6,3.5,3.5,3.5H98c1.9,0,3.5-1.6,3.5-3.5V8.8
		C101.6,6.9,100,5.3,98.1,5.3L98.1,5.3z"/>
</g>
<linearGradient id="SVGID_4_" gradientUnits="userSpaceOnUse" x1="58.4797" y1="826.0797" x2="50.0285" y2="835.9694" gradientTransform="matrix(1 0 0 1 0 -707.89)">
	<stop  offset="0" style="stop-color:#FFFFFF"/>
	<stop  offset="1" style="stop-color:#000000"/>
</linearGradient>
<path class="st6" d="M53.6,121c1.6,0,3,1.3,3,3s-1.3,3-3,3c-1.6,0-3-1.3-3-3S52,121,53.6,121 M53.6,120.6c-1.8,0-3.3,1.5-3.3,3.3
	s1.5,3.3,3.3,3.3s3.3-1.5,3.3-3.3C56.9,122.1,55.4,120.6,53.6,120.6L53.6,120.6z"/>
<path class="st7" d="M92,16H15.2v102.4H92V16z"/>
<linearGradient id="SVGID_5_" gradientUnits="userSpaceOnUse" x1="52.7147" y1="718.19" x2="54.4941" y2="718.19" gradientTransform="matrix(1 0 0 1 0 -707.89)">
	<stop  offset="0" style="stop-color:#FFFFFF"/>
	<stop  offset="1" style="stop-color:#000000"/>
</linearGradient>
<path class="st8" d="M54.5,10.3c0,0.5-0.4,0.9-0.9,0.9s-0.9-0.4-0.9-0.9s0.4-0.9,0.9-0.9C54.1,9.4,54.5,9.8,54.5,10.3z"/>
<linearGradient id="SVGID_6_" gradientUnits="userSpaceOnUse" x1="37.3647" y1="728.8473" x2="27.653" y2="825.5909" gradientTransform="matrix(1 0 0 1 0 -707.89)">
	<stop  offset="0" style="stop-color:#4D4D4D"/>
	<stop  offset="1" style="stop-color:#000000;stop-opacity:0"/>
</linearGradient>
<path class="st9" d="M9.5,5.5h62L11.6,129.2H9.5c-1.9,0-3.5-1.6-3.5-3.5V9C6,7,7.6,5.5,9.5,5.5"/>
</svg>
